<?xml version="1.0" standalone="no"?>
<!DOCTYPE svg PUBLIC "-//W3C//DTD SVG 20010904//EN"
 "http://www.w3.org/TR/2001/REC-SVG-20010904/DTD/svg10.dtd">
<svg version="1.0" xmlns="http://www.w3.org/2000/svg"
 width="128.000000pt" height="128.000000pt" viewBox="0 0 128.000000 128.000000"
 preserveAspectRatio="xMidYMid meet">
<metadata>
Created by potrace 1.11, written by Peter Selinger 2001-2013
</metadata>
<g transform="translate(0.000000,128.000000) scale(0.100000,-0.100000)"
fill="#000000" stroke="none">
<path d="M907 1134 c-4 -4 -26 -9 -50 -11 -110 -8 -138 -13 -188 -38 -123 -62
-275 -197 -332 -296 -64 -109 -207 -493 -207 -554 0 -46 27 -75 76 -82 62 -8
86 20 119 137 48 175 117 374 153 445 55 106 174 221 279 271 46 21 83 45 83
53 0 8 -6 11 -15 7 -23 -8 -18 22 5 34 11 6 25 8 30 5 5 -3 12 0 15 6 4 6 21
8 39 5 17 -3 47 -1 66 3 22 6 27 9 14 10 -12 1 -34 4 -50 7 -16 3 -33 2 -37
-2z m-237 -112 c0 -9 -44 -32 -58 -32 -9 1 41 39 51 40 4 0 7 -4 7 -8z m-125
-102 c-31 -32 -53 -46 -63 -42 -12 4 -2 17 38 53 69 61 87 52 25 -11z m-80
-69 c3 -5 -6 -26 -19 -46 -14 -20 -28 -45 -31 -56 -4 -13 -12 -18 -22 -15 -8
3 -19 6 -24 6 -10 0 8 32 49 88 25 33 37 39 47 23z m-94 -194 c-10 -23 -20
-47 -22 -53 -2 -6 -14 -8 -26 -5 l-23 6 24 52 c20 42 28 51 44 46 20 -5 20 -6
3 -46z m-51 -111 c0 -9 -7 -12 -20 -9 -11 3 -20 9 -20 14 0 5 9 9 20 9 11 0
20 -6 20 -14z m-97 -252 c27 -10 8 -44 -25 -44 -16 0 -27 3 -25 8 2 4 7 15 10
25 7 18 16 21 40 11z"/>
<path d="M1040 1097 c0 -9 5 -26 12 -36 9 -15 9 -29 -1 -61 -15 -51 -10 -60
14 -24 24 37 22 91 -4 117 -19 19 -21 19 -21 4z"/>
<path d="M898 1073 c-33 -8 -18 -23 22 -23 29 0 40 4 40 15 0 15 -25 18 -62 8z"/>
<path d="M1000 1045 c0 -10 -15 -34 -32 -53 -33 -33 -33 -34 -8 -30 33 4 71
71 52 90 -9 9 -12 8 -12 -7z"/>
<path d="M879 925 c-36 -27 -69 -78 -69 -107 0 -48 84 -98 164 -98 44 0 29 18
-21 26 -60 10 -54 9 -81 18 -63 21 -42 131 32 159 9 4 16 11 16 17 0 14 -2 13
-41 -15z"/>
<path d="M959 907 c-42 -22 -79 -59 -79 -79 0 -11 11 -23 28 -29 39 -16 211
-17 216 -2 4 8 -20 11 -87 11 -91 -1 -137 6 -137 21 0 4 25 25 55 46 30 20 55
39 55 41 0 8 -26 3 -51 -9z"/>
<path d="M1177 730 c13 -27 13 -35 -1 -78 -14 -41 -22 -50 -65 -70 -27 -12
-54 -22 -60 -22 -6 0 -11 -7 -11 -16 0 -34 118 28 149 80 33 52 27 136 -9 136
-17 0 -17 -2 -3 -30z"/>
<path d="M1040 740 c0 -5 9 -10 20 -10 11 0 20 5 20 10 0 6 -9 10 -20 10 -11
0 -20 -4 -20 -10z"/>
<path d="M1124 713 c6 -25 3 -36 -13 -52 -15 -15 -17 -21 -7 -21 18 0 46 38
46 61 0 9 -7 23 -16 30 -15 12 -16 10 -10 -18z"/>
<path d="M1030 615 c-33 -13 -34 -14 -8 -14 32 -1 58 8 58 20 0 11 -7 11 -50
-6z"/>
<path d="M920 591 c0 -11 26 -22 34 -14 12 12 5 23 -14 23 -11 0 -20 -4 -20
-9z"/>
<path d="M781 571 c-76 -27 -122 -75 -128 -137 -3 -27 -14 -67 -24 -90 -23
-49 -24 -85 -4 -124 18 -35 61 -70 87 -70 10 0 23 -11 30 -24 14 -32 34 -39
66 -23 22 10 27 20 27 47 0 19 8 46 18 60 43 62 6 163 -71 190 -44 15 -54 37
-28 60 8 6 12 18 10 25 -9 22 -44 -15 -44 -46 0 -16 -7 -29 -16 -33 -22 -8
-25 -4 -26 33 -1 24 7 39 32 61 19 17 37 30 42 30 4 0 8 7 8 15 0 11 12 15 40
16 22 1 45 3 50 4 6 1 15 3 20 4 6 0 10 6 10 11 0 15 -39 11 -99 -9z m-71
-256 c0 -16 -27 -32 -37 -22 -3 4 -3 13 0 22 8 20 37 20 37 0z m20 -95 c-8 -5
-24 -10 -35 -10 -17 0 -17 2 -5 10 8 5 24 10 35 10 17 0 17 -2 5 -10z"/>
<path d="M973 543 c-20 -8 -15 -23 7 -23 11 0 20 7 20 15 0 15 -6 17 -27 8z"/>
<path d="M884 529 c-3 -5 -16 -9 -29 -9 -30 0 -55 -10 -55 -21 0 -5 11 -7 25
-3 14 3 48 9 76 13 l51 6 -31 12 c-18 6 -33 7 -37 2z"/>
</g>
</svg>
